<svg width="128" height="128" viewBox="0 0 128 128" fill="none" xmlns="http://www.w3.org/2000/svg">
<path d="M7.25503 64.7006H38.6661V71.6176H16.2064V77.5173H38.6661V84.1495H16.2064V90.334H38.6661V97.251H7.25503V64.7006ZM44.7642 64.7006H64.9454C68.2005 64.7006 71.0893 65.3923 73.612 66.7757C76.1617 68.132 78.1419 70.0443 79.5524 72.5127C80.99 74.9811 81.7088 77.7886 81.7088 80.9351V81.0165C81.7088 84.163 80.99 86.9705 79.5524 89.4389C78.1419 91.9073 76.1617 93.8332 73.612 95.2166C71.0893 96.5728 68.2005 97.251 64.9454 97.251H44.7642V64.7006ZM64.9454 89.1948C66.4644 89.1948 67.8071 88.8557 68.9735 88.1776C70.167 87.4723 71.0893 86.4958 71.7403 85.248C72.4184 84.0003 72.7575 82.5898 72.7575 81.0165V80.9351C72.7575 79.3347 72.4184 77.9242 71.7403 76.7036C71.0893 75.4558 70.167 74.4929 68.9735 73.8147C67.8071 73.1095 66.4644 72.7568 64.9454 72.7568H53.7156V89.1948H64.9454ZM85.8892 64.7006H106.07C109.325 64.7006 112.214 65.3923 114.737 66.7757C117.287 68.132 119.267 70.0443 120.677 72.5127C122.115 74.9811 122.834 77.7886 122.834 80.9351V81.0165C122.834 84.163 122.115 86.9705 120.677 89.4389C119.267 91.9073 117.287 93.8332 114.737 95.2166C112.214 96.5728 109.325 97.251 106.07 97.251H85.8892V64.7006ZM106.07 89.1948C107.589 89.1948 108.932 88.8557 110.099 88.1776C111.292 87.4723 112.214 86.4958 112.865 85.248C113.543 84.0003 113.883 82.5898 113.883 81.0165V80.9351C113.883 79.3347 113.543 77.9242 112.865 76.7036C112.214 75.4558 111.292 74.4929 110.099 73.8147C108.932 73.1095 107.589 72.7568 106.07 72.7568H94.8406V89.1948H106.07Z" fill="#3F3F3E"/>
<path d="M14.3664 102.829H16.1656L23.7343 118.475H22.0719L19.8815 113.899H10.6505L8.4601 118.475H6.79774L14.3664 102.829ZM19.197 112.491L15.3247 104.413H15.2073L11.335 112.491H19.197ZM32.3781 106.545C33.6037 106.545 34.6923 106.799 35.6441 107.308C36.6089 107.816 37.3586 108.534 37.8932 109.459C38.4278 110.372 38.695 111.415 38.695 112.588V112.628C38.695 113.801 38.4278 114.844 37.8932 115.757C37.3586 116.669 36.6155 117.386 35.6637 117.908C34.7119 118.416 33.6362 118.671 32.4367 118.671C31.3415 118.671 30.3115 118.469 29.3467 118.064C28.3819 117.647 27.6387 117.1 27.1172 116.422H26.9607V122.387H25.3962V106.741H26.7652L26.9607 108.892H27.1172C27.6778 108.149 28.4145 107.575 29.3271 107.171C30.2398 106.754 31.2568 106.545 32.3781 106.545ZM26.9607 112.628C26.9607 113.54 27.1759 114.349 27.6061 115.053C28.0494 115.757 28.6557 116.311 29.4249 116.715C30.2072 117.106 31.0938 117.302 32.0847 117.302C33.0626 117.302 33.9361 117.106 34.7054 116.715C35.4746 116.311 36.0679 115.757 36.4851 115.053C36.9153 114.349 37.1305 113.54 37.1305 112.628V112.588C37.1305 111.676 36.9153 110.867 36.4851 110.163C36.0548 109.459 35.4551 108.912 34.6858 108.52C33.9296 108.116 33.0626 107.914 32.0847 107.914C31.0938 107.914 30.2072 108.116 29.4249 108.52C28.6557 108.912 28.0494 109.466 27.6061 110.183C27.1759 110.887 26.9607 111.695 26.9607 112.608V112.628ZM47.9245 106.545C49.1501 106.545 50.2388 106.799 51.1905 107.308C52.1554 107.816 52.9051 108.534 53.4396 109.459C53.9742 110.372 54.2415 111.415 54.2415 112.588V112.628C54.2415 113.801 53.9742 114.844 53.4396 115.757C52.9051 116.669 52.1619 117.386 51.2101 117.908C50.2583 118.416 49.1827 118.671 47.9832 118.671C46.888 118.671 45.858 118.469 44.8931 118.064C43.9283 117.647 43.1851 117.1 42.6636 116.422H42.5072V122.387H40.9426V106.741H42.3116L42.5072 108.892H42.6636C43.2243 108.149 43.9609 107.575 44.8736 107.171C45.7862 106.754 46.8032 106.545 47.9245 106.545ZM42.5072 112.628C42.5072 113.54 42.7223 114.349 43.1525 115.053C43.5958 115.757 44.2021 116.311 44.9714 116.715C45.7537 117.106 46.6402 117.302 47.6311 117.302C48.609 117.302 49.4826 117.106 50.2518 116.715C51.0211 116.311 51.6143 115.757 52.0315 115.053C52.4618 114.349 52.6769 113.54 52.6769 112.628V112.588C52.6769 111.676 52.4618 110.867 52.0315 110.163C51.6012 109.459 51.0015 108.912 50.2322 108.52C49.476 108.116 48.609 107.914 47.6311 107.914C46.6402 107.914 45.7537 108.116 44.9714 108.52C44.2021 108.912 43.5958 109.466 43.1525 110.183C42.7223 110.887 42.5072 111.695 42.5072 112.608V112.628ZM63.3145 118.827C61.8803 118.827 60.5699 118.605 59.3835 118.162C58.21 117.719 57.2843 117.113 56.6064 116.343C55.9414 115.574 55.6089 114.72 55.6089 113.781V113.429H57.1735V113.781C57.1735 114.42 57.4408 115.02 57.9754 115.581C58.523 116.128 59.2596 116.572 60.1853 116.911C61.111 117.25 62.1215 117.419 63.2167 117.419C64.3249 117.419 65.3419 117.289 66.2676 117.028C67.1933 116.754 67.93 116.369 68.4776 115.874C69.0252 115.366 69.299 114.779 69.299 114.114C69.299 113.436 69.0252 112.895 68.4776 112.491C67.943 112.086 67.2715 111.78 66.4632 111.571C65.6678 111.363 64.5726 111.135 63.1776 110.887C61.613 110.613 60.3548 110.346 59.403 110.085C58.4643 109.824 57.6624 109.42 56.9975 108.873C56.3326 108.312 56.0001 107.569 56.0001 106.643C56.0001 105.756 56.313 105 56.9388 104.374C57.5647 103.749 58.4121 103.279 59.4813 102.966C60.5504 102.64 61.7434 102.477 63.0602 102.477C64.4814 102.477 65.7526 102.686 66.8739 103.103C68.0082 103.52 68.8883 104.114 69.5141 104.883C70.153 105.639 70.4724 106.519 70.4724 107.523V107.68H68.9078V107.523C68.9078 106.806 68.6601 106.174 68.1646 105.626C67.6692 105.078 66.9782 104.655 66.0916 104.355C65.218 104.042 64.2206 103.885 63.0993 103.885C62.0954 103.885 61.1697 103.996 60.3222 104.218C59.4878 104.427 58.8163 104.739 58.3078 105.157C57.8124 105.561 57.5647 106.043 57.5647 106.604C57.5647 107.191 57.8189 107.666 58.3274 108.032C58.8359 108.384 59.4682 108.657 60.2244 108.853C60.9937 109.049 62.0237 109.257 63.3145 109.479C64.9573 109.779 66.2741 110.072 67.265 110.359C68.2559 110.633 69.1034 111.063 69.8075 111.65C70.5115 112.236 70.8635 113.032 70.8635 114.036C70.8635 115.013 70.5245 115.867 69.8466 116.598C69.1816 117.315 68.2755 117.869 67.1281 118.26C65.9808 118.638 64.7095 118.827 63.3145 118.827ZM78.6397 118.788C77.4923 118.788 76.4688 118.534 75.5692 118.025C74.6696 117.504 73.9655 116.793 73.457 115.894C72.9616 114.981 72.7138 113.951 72.7138 112.804V106.741H74.2784V112.804C74.2784 113.677 74.474 114.466 74.8651 115.17C75.2693 115.874 75.8234 116.428 76.5275 116.832C77.2315 117.223 78.0334 117.419 78.933 117.419C79.8457 117.419 80.6606 117.21 81.3777 116.793C82.0948 116.376 82.6554 115.802 83.0596 115.072C83.4638 114.342 83.6659 113.521 83.6659 112.608V106.741H85.2304V118.475H83.8614L83.6659 116.422H83.529C83.0074 117.165 82.3229 117.745 81.4755 118.162C80.628 118.579 79.6827 118.788 78.6397 118.788ZM88.3649 106.741H89.7339L89.9295 108.286H90.0468C90.5032 107.712 91.0768 107.262 91.7679 106.936C92.4719 106.61 93.2412 106.447 94.0756 106.447C95.0926 106.447 95.9922 106.689 96.7745 107.171C97.5568 107.64 98.15 108.286 98.5542 109.107H98.7107C99.1279 108.286 99.7342 107.64 100.529 107.171C101.338 106.689 102.251 106.447 103.267 106.447C104.245 106.447 105.112 106.669 105.869 107.112C106.638 107.556 107.238 108.168 107.668 108.951C108.098 109.733 108.313 110.613 108.313 111.591V118.475H106.749V111.591C106.749 110.874 106.586 110.228 106.26 109.655C105.947 109.081 105.504 108.631 104.93 108.305C104.369 107.979 103.73 107.816 103.013 107.816C102.257 107.816 101.586 107.992 100.999 108.344C100.412 108.683 99.9493 109.153 99.6103 109.753C99.2843 110.352 99.1214 111.03 99.1214 111.787V118.475H97.5568V111.591C97.5568 110.874 97.3938 110.228 97.0679 109.655C96.755 109.081 96.3117 108.631 95.738 108.305C95.1643 107.979 94.5124 107.816 93.7823 107.816C93.0391 107.816 92.3741 107.986 91.7874 108.325C91.2007 108.664 90.7444 109.14 90.4184 109.753C90.0925 110.352 89.9295 111.03 89.9295 111.787V118.475H88.3649V106.741ZM116.726 118.827C115.435 118.827 114.281 118.566 113.264 118.045C112.26 117.523 111.478 116.793 110.917 115.854C110.357 114.903 110.076 113.827 110.076 112.628V112.588C110.076 111.389 110.357 110.32 110.917 109.381C111.478 108.429 112.26 107.693 113.264 107.171C114.281 106.65 115.435 106.389 116.726 106.389C118.017 106.389 119.164 106.65 120.168 107.171C121.185 107.693 121.974 108.429 122.534 109.381C123.095 110.32 123.375 111.389 123.375 112.588V112.628C123.375 113.827 123.095 114.903 122.534 115.854C121.974 116.793 121.185 117.523 120.168 118.045C119.164 118.566 118.017 118.827 116.726 118.827ZM111.641 112.628C111.641 113.553 111.856 114.381 112.286 115.111C112.717 115.841 113.316 116.409 114.086 116.813C114.855 117.217 115.735 117.419 116.726 117.419C117.717 117.419 118.597 117.217 119.366 116.813C120.135 116.409 120.735 115.841 121.165 115.111C121.596 114.381 121.811 113.553 121.811 112.628V112.588C121.811 111.663 121.596 110.835 121.165 110.105C120.735 109.374 120.135 108.807 119.366 108.403C118.597 107.999 117.717 107.797 116.726 107.797C115.735 107.797 114.855 107.999 114.086 108.403C113.316 108.807 112.717 109.374 112.286 110.105C111.856 110.835 111.641 111.663 111.641 112.588V112.628Z" fill="#FD7E1D"/>
<g clip-path="url(#clip0_566_462)">
<path d="M44.3404 47.3454C49.0141 42.6889 54.6555 40.3598 61.2644 40.358C67.8734 40.3563 73.5147 42.6854 78.1885 47.3454C81.8691 51.0175 84.1008 55.2856 84.8835 60.15H89.2593C88.9145 57.7854 88.2609 55.4758 87.3153 53.28C85.8265 49.8059 83.8116 46.8038 81.2706 44.2739C78.7295 41.7439 75.7171 39.7359 72.2334 38.2499C68.764 36.7797 65.0327 36.022 61.2627 36.022C57.4927 36.022 53.7614 36.7797 50.292 38.2499C46.8065 39.7371 43.7952 41.7451 41.2583 44.2739C38.7213 46.8027 36.7064 49.8047 35.2135 53.28C34.2667 55.4754 33.6131 57.7851 33.2695 60.15H37.6453C38.4269 55.2856 40.6586 51.0175 44.3404 47.3454Z" fill="#FD7E1D"/>
<path d="M33.006 47.8902C35.8599 42.9785 39.955 38.8975 44.8837 36.0534C49.8802 33.1421 55.3405 31.6865 61.2646 31.6865C67.1886 31.6865 72.6489 33.1421 77.6454 36.0534C82.642 38.9646 86.6012 42.9102 89.5231 47.8902C91.7407 51.6474 93.1506 55.8229 93.6634 60.1518H98.0453C97.5137 55.0596 95.8956 50.1395 93.2995 45.7216C89.9939 40.058 85.5012 35.5807 79.8215 32.29C74.1418 28.9992 67.9561 27.3517 61.2646 27.3477C54.5747 27.3477 48.3897 28.9948 42.7094 32.2891C37.0291 35.5834 32.5355 40.0606 29.2287 45.7208C26.6301 50.1375 25.0118 55.0581 24.4829 60.1509H28.8649C29.3768 55.8219 30.787 51.6465 33.006 47.8902Z" fill="#FD7E1D"/>
<path d="M23.1838 48.1897C25.3581 43.0895 28.2899 38.7019 31.9793 35.0269C35.6688 31.3519 40.0703 28.4325 45.1841 26.2686C50.2706 24.1208 55.7384 23.014 61.2626 23.014C66.7869 23.014 72.2547 24.1208 77.3412 26.2686C82.4585 28.4348 86.8612 31.3543 90.5494 35.0269C94.2377 38.6995 97.1695 43.0871 99.345 48.1897C100.976 51.9962 102.011 56.0301 102.412 60.15H106.789C106.221 53.4651 104.232 47.2097 100.821 41.3837C96.7336 34.3963 91.1834 28.8643 84.1707 24.7876C77.1581 20.7109 69.5227 18.6731 61.2644 18.6743C53.0032 18.6743 45.3669 20.7121 38.3554 24.7876C31.3439 28.8631 25.7937 34.3951 21.7047 41.3837C18.2965 47.2067 16.3074 53.4622 15.7373 60.15H20.1166C20.5162 56.0298 21.5507 51.9957 23.1838 48.1897Z" fill="#FD7E1D"/>
<path d="M15.1764 44.8448C17.813 38.6819 21.3679 33.3712 25.8413 28.9126C30.3146 24.4541 35.6463 20.9102 41.8364 18.2809C47.9815 15.6762 54.5907 14.3336 61.2686 14.3336C67.9465 14.3336 74.5558 15.6762 80.7009 18.2809C86.885 20.9084 92.2141 24.4523 96.688 28.9126C101.162 33.3729 104.718 38.6836 107.356 44.8448C109.445 49.7073 110.726 54.8763 111.149 60.149H115.515C115.087 54.2928 113.677 48.5496 111.344 43.1579C108.463 36.4701 104.596 30.7072 99.7429 25.8691C94.8899 21.031 89.1071 17.1774 82.3944 14.3082C75.6835 11.4366 68.6416 10.0006 61.2686 10C53.8957 9.99942 46.8537 11.4355 40.1428 14.3082C33.4348 17.1792 27.652 21.0328 22.7943 25.8691C17.9366 30.7054 14.0697 36.4684 11.1935 43.1579C8.86024 48.5496 7.45036 54.2928 7.02246 60.149H11.3886C11.8064 54.8761 13.0859 49.7066 15.1764 44.8448Z" fill="#FD7E1D"/>
</g>
<defs>
<clipPath id="clip0_566_462">
<rect width="108.501" height="50.1516" fill="white" transform="translate(7.01367 10)"/>
</clipPath>
</defs>
</svg>
