<svg width="256" height="256" viewBox="0 0 256 256" fill="none" xmlns="http://www.w3.org/2000/svg">
<path d="M14.5101 128.401H77.3322V142.235H32.4128V154.034H77.3322V167.298H32.4128V179.668H77.3322V193.501H14.5101V128.401ZM89.5284 128.401H129.891C136.401 128.401 142.179 129.784 147.224 132.551C152.323 135.263 156.284 139.088 159.105 144.025C161.98 148.962 163.418 154.577 163.418 160.87V161.033C163.418 167.326 161.98 172.94 159.105 177.877C156.284 182.814 152.323 186.666 147.224 189.433C142.179 192.145 136.401 193.501 129.891 193.501H89.5284V128.401ZM129.891 177.389C132.929 177.389 135.614 176.711 137.947 175.355C140.334 173.944 142.179 171.991 143.481 169.496C144.837 167 145.515 164.179 145.515 161.033V160.87C145.515 157.669 144.837 154.848 143.481 152.407C142.179 149.911 140.334 147.985 137.947 146.629C135.614 145.218 132.929 144.513 129.891 144.513H107.431V177.389H129.891ZM171.778 128.401H212.141C218.651 128.401 224.429 129.784 229.474 132.551C234.573 135.263 238.534 139.088 241.355 144.025C244.23 148.962 245.668 154.577 245.668 160.87V161.033C245.668 167.326 244.23 172.94 241.355 177.877C238.534 182.814 234.573 186.666 229.474 189.433C224.429 192.145 218.651 193.501 212.141 193.501H171.778V128.401ZM212.141 177.389C215.179 177.389 217.864 176.711 220.197 175.355C222.584 173.944 224.429 171.991 225.731 169.496C227.087 167 227.765 164.179 227.765 161.033V160.87C227.765 157.669 227.087 154.848 225.731 152.407C224.429 149.911 222.584 147.985 220.197 146.629C217.864 145.218 215.179 144.513 212.141 144.513H189.681V177.389H212.141Z" fill="#3F3F3E"/>
<path d="M28.7327 204.659H32.3313L47.4685 235.95H44.1438L39.763 226.797H21.301L16.9202 235.95H13.5955L28.7327 204.659ZM38.394 223.981L30.6493 207.827H30.4146L22.67 223.981H38.394ZM64.7561 212.09C67.2073 212.09 69.3847 212.599 71.2882 213.616C73.2179 214.633 74.7173 216.067 75.7864 217.918C76.8555 219.744 77.3901 221.83 77.3901 224.177V224.255C77.3901 226.602 76.8555 228.688 75.7864 230.513C74.7173 232.339 73.2309 233.773 71.3273 234.816C69.4238 235.833 67.2725 236.341 64.8735 236.341C62.6831 236.341 60.6231 235.937 58.6934 235.129C56.7638 234.294 55.2774 233.199 54.2344 231.843H53.9215V243.773H50.7923V212.482H53.5303L53.9215 216.784H54.2344C55.3557 215.298 56.829 214.15 58.6543 213.342C60.4796 212.508 62.5136 212.09 64.7561 212.09ZM53.9215 224.255C53.9215 226.08 54.3517 227.697 55.2122 229.105C56.0988 230.513 57.3114 231.622 58.8499 232.43C60.4144 233.212 62.1876 233.603 64.1694 233.603C66.1251 233.603 67.8722 233.212 69.4107 232.43C70.9492 231.622 72.1357 230.513 72.9702 229.105C73.8307 227.697 74.2609 226.08 74.2609 224.255V224.177C74.2609 222.351 73.8307 220.735 72.9702 219.327C72.1096 217.918 70.9101 216.823 69.3716 216.041C67.8592 215.233 66.1251 214.828 64.1694 214.828C62.1876 214.828 60.4144 215.233 58.8499 216.041C57.3114 216.823 56.0988 217.932 55.2122 219.366C54.3517 220.774 53.9215 222.391 53.9215 224.216V224.255ZM95.849 212.09C98.3002 212.09 100.478 212.599 102.381 213.616C104.311 214.633 105.81 216.067 106.879 217.918C107.948 219.744 108.483 221.83 108.483 224.177V224.255C108.483 226.602 107.948 228.688 106.879 230.513C105.81 232.339 104.324 233.773 102.42 234.816C100.517 235.833 98.3654 236.341 95.9663 236.341C93.7759 236.341 91.7159 235.937 89.7863 235.129C87.8566 234.294 86.3703 233.199 85.3272 231.843H85.0143V243.773H81.8852V212.482H84.6232L85.0143 216.784H85.3272C86.4485 215.298 87.9218 214.15 89.7472 213.342C91.5725 212.508 93.6064 212.09 95.849 212.09ZM85.0143 224.255C85.0143 226.08 85.4446 227.697 86.3051 229.105C87.1917 230.513 88.4042 231.622 89.9427 232.43C91.5073 233.212 93.2805 233.603 95.2623 233.603C97.218 233.603 98.9651 233.212 100.504 232.43C102.042 231.622 103.229 230.513 104.063 229.105C104.924 227.697 105.354 226.08 105.354 224.255V224.177C105.354 222.351 104.924 220.735 104.063 219.327C103.202 217.918 102.003 216.823 100.464 216.041C98.9521 215.233 97.218 214.828 95.2623 214.828C93.2805 214.828 91.5073 215.233 89.9427 216.041C88.4042 216.823 87.1917 217.932 86.3051 219.366C85.4446 220.774 85.0143 222.391 85.0143 224.216V224.255ZM126.629 236.654C123.761 236.654 121.14 236.211 118.767 235.324C116.42 234.438 114.569 233.225 113.213 231.687C111.883 230.148 111.218 228.44 111.218 226.563V225.859H114.347V226.563C114.347 227.84 114.882 229.04 115.951 230.161C117.046 231.256 118.519 232.143 120.371 232.821C122.222 233.499 124.243 233.838 126.433 233.838C128.65 233.838 130.684 233.577 132.535 233.056C134.387 232.508 135.86 231.739 136.955 230.748C138.05 229.731 138.598 228.558 138.598 227.228C138.598 225.872 138.05 224.79 136.955 223.981C135.886 223.173 134.543 222.56 132.926 222.143C131.336 221.726 129.145 221.269 126.355 220.774C123.226 220.226 120.71 219.692 118.806 219.17C116.929 218.649 115.325 217.84 113.995 216.745C112.665 215.624 112 214.137 112 212.286C112 210.513 112.626 209 113.878 207.749C115.129 206.497 116.824 205.558 118.963 204.933C121.101 204.281 123.487 203.955 126.12 203.955C128.963 203.955 131.505 204.372 133.748 205.206C136.016 206.041 137.777 207.227 139.028 208.766C140.306 210.278 140.945 212.038 140.945 214.046V214.359H137.816V214.046C137.816 212.612 137.32 211.347 136.329 210.252C135.338 209.157 133.956 208.309 132.183 207.71C130.436 207.084 128.441 206.771 126.199 206.771C124.191 206.771 122.339 206.993 120.644 207.436C118.976 207.853 117.633 208.479 116.616 209.313C115.625 210.122 115.129 211.087 115.129 212.208C115.129 213.381 115.638 214.333 116.655 215.063C117.672 215.767 118.936 216.315 120.449 216.706C121.987 217.097 124.047 217.514 126.629 217.958C129.915 218.557 132.548 219.144 134.53 219.718C136.512 220.265 138.207 221.126 139.615 222.299C141.023 223.473 141.727 225.063 141.727 227.071C141.727 229.027 141.049 230.735 139.693 232.195C138.363 233.629 136.551 234.738 134.256 235.52C131.962 236.276 129.419 236.654 126.629 236.654ZM157.279 236.576C154.985 236.576 152.938 236.068 151.138 235.051C149.339 234.008 147.931 232.586 146.914 230.787C145.923 228.962 145.428 226.902 145.428 224.607V212.482H148.557V224.607C148.557 226.354 148.948 227.932 149.73 229.34C150.539 230.748 151.647 231.856 153.055 232.665C154.463 233.447 156.067 233.838 157.866 233.838C159.691 233.838 161.321 233.421 162.755 232.586C164.19 231.752 165.311 230.605 166.119 229.144C166.928 227.684 167.332 226.041 167.332 224.216V212.482H170.461V235.95H167.723L167.332 231.843H167.058C166.015 233.33 164.646 234.49 162.951 235.324C161.256 236.159 159.365 236.576 157.279 236.576ZM176.73 212.482H179.468L179.859 215.572H180.094C181.006 214.424 182.154 213.525 183.536 212.873C184.944 212.221 186.482 211.895 188.151 211.895C190.185 211.895 191.984 212.377 193.549 213.342C195.114 214.281 196.3 215.572 197.108 217.214H197.421C198.256 215.572 199.468 214.281 201.059 213.342C202.676 212.377 204.501 211.895 206.535 211.895C208.491 211.895 210.225 212.338 211.737 213.225C213.276 214.111 214.475 215.337 215.336 216.902C216.196 218.466 216.626 220.226 216.626 222.182V235.95H213.497V222.182C213.497 220.748 213.171 219.457 212.519 218.31C211.894 217.162 211.007 216.263 209.86 215.611C208.738 214.959 207.461 214.633 206.026 214.633C204.514 214.633 203.171 214.985 201.998 215.689C200.824 216.367 199.899 217.306 199.221 218.505C198.569 219.705 198.243 221.061 198.243 222.573V235.95H195.114V222.182C195.114 220.748 194.788 219.457 194.136 218.31C193.51 217.162 192.623 216.263 191.476 215.611C190.329 214.959 189.025 214.633 187.565 214.633C186.078 214.633 184.748 214.972 183.575 215.65C182.401 216.328 181.489 217.28 180.837 218.505C180.185 219.705 179.859 221.061 179.859 222.573V235.95H176.73V212.482ZM233.452 236.654C230.87 236.654 228.562 236.133 226.529 235.09C224.521 234.047 222.956 232.586 221.835 230.709C220.714 228.805 220.153 226.654 220.153 224.255V224.177C220.153 221.778 220.714 219.64 221.835 217.762C222.956 215.858 224.521 214.385 226.529 213.342C228.562 212.299 230.87 211.778 233.452 211.778C236.033 211.778 238.328 212.299 240.336 213.342C242.37 214.385 243.947 215.858 245.069 217.762C246.19 219.64 246.751 221.778 246.751 224.177V224.255C246.751 226.654 246.19 228.805 245.069 230.709C243.947 232.586 242.37 234.047 240.336 235.09C238.328 236.133 236.033 236.654 233.452 236.654ZM223.282 224.255C223.282 226.106 223.712 227.762 224.573 229.223C225.433 230.683 226.633 231.817 228.171 232.625C229.71 233.434 231.47 233.838 233.452 233.838C235.434 233.838 237.194 233.434 238.732 232.625C240.271 231.817 241.47 230.683 242.331 229.223C243.191 227.762 243.622 226.106 243.622 224.255V224.177C243.622 222.325 243.191 220.67 242.331 219.209C241.47 217.749 240.271 216.615 238.732 215.806C237.194 214.998 235.434 214.594 233.452 214.594C231.47 214.594 229.71 214.998 228.171 215.806C226.633 216.615 225.433 217.749 224.573 219.209C223.712 220.67 223.282 222.325 223.282 224.177V224.255Z" fill="#FD7E1D"/>
<g clip-path="url(#clip0_566_463)">
<path d="M88.6806 94.6913C98.028 85.3783 109.311 80.7201 122.529 80.7166C135.747 80.7131 147.029 85.3713 156.377 94.6913C163.738 102.035 168.201 110.572 169.767 120.3H178.518C177.829 115.571 176.522 110.952 174.63 106.56C171.653 99.6122 167.623 93.6082 162.541 88.5482C157.459 83.4883 151.434 79.4723 144.466 76.5003C137.528 73.5599 130.065 72.0444 122.525 72.0444C114.985 72.0444 107.522 73.5599 100.584 76.5003C93.6127 79.4746 87.5902 83.4906 82.5163 88.5482C77.4424 93.6058 73.4126 99.6099 70.4269 106.56C68.5332 110.951 67.226 115.571 66.5388 120.3H75.2904C76.8536 110.572 81.317 102.035 88.6806 94.6913Z" fill="#FD7E1D"/>
<path d="M66.0115 95.7804C71.7193 85.957 79.9096 77.795 89.7668 72.1068C99.76 66.2843 110.681 63.373 122.529 63.373C134.377 63.373 145.297 66.2843 155.29 72.1068C165.284 77.9293 173.202 85.8205 179.046 95.7804C183.481 103.295 186.301 111.646 187.326 120.304H196.09C195.027 110.119 191.791 100.279 186.599 91.4433C179.987 80.1159 171.002 71.1615 159.642 64.5799C148.283 57.9984 135.912 54.7035 122.529 54.6953C109.149 54.6953 96.7789 57.9896 85.4183 64.5782C74.0577 71.1667 65.0706 80.1212 58.4569 91.4415C53.2598 100.275 50.0232 110.116 48.9653 120.302H57.7292C58.753 111.644 61.5736 103.293 66.0115 95.7804Z" fill="#FD7E1D"/>
<path d="M46.3674 96.3799C50.7159 86.1794 56.5796 77.4042 63.9584 70.0543C71.3373 62.7043 80.1404 56.8655 90.3679 52.5377C100.541 48.2422 111.477 46.0286 122.525 46.0286C133.573 46.0286 144.509 48.2422 154.682 52.5377C164.917 56.8702 173.722 62.709 181.099 70.0543C188.475 77.3996 194.339 86.1748 198.69 96.3799C201.953 103.993 204.022 112.061 204.824 120.301H213.577C212.442 106.931 208.464 94.4198 201.643 82.7678C193.467 68.7931 182.367 57.7291 168.341 49.5757C154.316 41.4223 139.045 37.3468 122.529 37.3491C106.006 37.3491 90.7335 41.4246 76.7106 49.5757C62.6876 57.7267 51.5872 68.7908 43.4092 82.7678C36.5928 94.414 32.6145 106.925 31.4744 120.301H40.233C41.0321 112.06 43.1012 103.992 46.3674 96.3799Z" fill="#FD7E1D"/>
<path d="M30.3529 89.6896C35.626 77.3638 42.7359 66.7423 51.6825 57.8252C60.6292 48.9081 71.2926 41.8204 83.6727 36.5619C95.9629 31.3523 109.181 28.6672 122.537 28.6672C135.893 28.6672 149.112 31.3523 161.402 36.5619C173.77 41.8168 184.428 48.9046 193.376 57.8252C202.324 66.7458 209.436 77.3673 214.711 89.6896C218.889 99.4146 221.452 109.753 222.297 120.298H231.03C230.174 108.586 227.354 97.0992 222.688 86.3159C216.926 72.9403 209.192 61.4144 199.486 51.7382C189.78 42.0621 178.214 34.3548 164.789 28.6164C151.367 22.8733 137.283 20.0012 122.537 20C107.791 19.9988 93.7074 22.871 80.2856 28.6164C66.8697 34.3583 55.304 42.0656 45.5886 51.7382C35.8732 61.4109 28.1393 72.9368 22.387 86.3159C17.7205 97.0992 14.9007 108.586 14.0449 120.298H22.7772C23.6129 109.752 26.1718 99.4131 30.3529 89.6896Z" fill="#FD7E1D"/>
</g>
<defs>
<clipPath id="clip0_566_463">
<rect width="217.002" height="100.303" fill="white" transform="translate(14.0271 20)"/>
</clipPath>
</defs>
</svg>
